<?xml version="1.0" standalone="no"?><!DOCTYPE svg PUBLIC "-//W3C//DTD SVG 1.1//EN" "http://www.w3.org/Graphics/SVG/1.1/DTD/svg11.dtd"><svg t="1775993290348" class="icon" viewBox="0 0 1024 1024" version="1.1" xmlns="http://www.w3.org/2000/svg" p-id="8154" xmlns:xlink="http://www.w3.org/1999/xlink" width="200" height="200"><path d="M208.979592 1024h606.040816c115.461224 0 208.979592-93.518367 208.979592-208.979592V208.979592C1024 93.518367 930.481633 0 815.020408 0H208.979592C93.518367 0 0 93.518367 0 208.979592v606.040816c0 115.461224 93.518367 208.979592 208.979592 208.979592z" fill="#FFFFFF" p-id="8155"></path><path d="M870.50449 280.555102l19.330612-43.572245c2.403265-5.642449 1.253878-12.225306-3.030204-16.613877l-52.767347-53.603266c-23.301224-23.301224-57.782857-31.346939-88.816327-20.48l-14.837551 5.12-80.979591-87.771428L512.626939 62.693878h-0.940408l-137.717551 1.149387-80.666123 88.398368-14.524081-5.12a84.615837 84.615837 0 0 0-89.338776 20.897959l-53.812245 54.439184c-3.448163 3.552653-4.597551 8.777143-2.716735 13.374693l20.271021 45.348572L125.387755 357.146122l18.181225 68.649796 82.128979 312.63347c9.404082 36.153469 31.242449 67.709388 61.54449 89.338775 0 0 99.683265 70.426122 197.903673 134.373878 8.777143 5.642449 17.763265 9.613061 27.480817 9.613061 9.613061 0 18.703673-3.970612 27.480816-9.717551 66.66449-43.781224 132.597551-88.711837 197.799184-134.687347 30.197551-21.629388 51.931429-53.185306 61.33551-89.234286l81.502041-312.633469 17.867755-68.963265-28.107755-75.964082z" fill="#EA3E25" p-id="8156"></path><path d="M270.315102 815.020408l179.722449 120.790204c72.829388 46.915918 66.56 57.469388 67.709388-41.795918l-6.687347-689.110204-80.039184 33.332245-102.713469-23.928164-78.785306-45.348571c-15.15102-8.777143-47.751837-3.657143-64.365715 11.180408l-50.364081 51.40898 21.106939 56.32L125.387755 363.833469l104.176327 387.970613c6.687347 23.928163 21.420408 44.721633 40.75102 63.216326z" fill="#EC622B" p-id="8157"></path><path d="M521.299592 619.206531h-9.717551c-1.149388 0-5.12 1.149388-8.777143 2.716734l-39.183674 16.404898c-3.657143 1.462857-9.717551 4.179592-13.374693 5.955919l-59.141225 30.928979c-3.657143 1.776327-3.970612 5.12-0.626939 7.523266l52.244898 36.989387c3.343673 2.298776 8.463673 6.269388 11.493878 8.986123l23.301224 19.957551c3.030204 2.821224 7.836735 7.000816 10.866939 9.717551l22.256327 19.957551c3.134694 2.716735 7.836735 2.716735 10.971428 0l22.883266-19.957551c3.030204-2.716735 7.941224-6.896327 10.866938-9.717551l23.301225-20.271021c3.030204-2.716735 8.150204-6.582857 11.493877-9.090612l52.244898-37.198367c3.343673-2.403265 3.030204-5.746939-0.626938-7.523266l-59.141225-30.30204c-4.388571-2.089796-8.881633-4.179592-13.374694-6.060409l-39.183673-16.300408c-2.821224-1.253878-5.746939-2.194286-8.777143-2.716734z" fill="#FFFFFF" p-id="8158"></path><path d="M814.602449 364.669388c0-3.970612-0.20898-10.553469-0.835918-14.524082l-3.030204-8.777143c-2.089796-4.388571-4.493061-8.672653-7.209796-12.747755l-34.168164-50.468571c-2.716735-4.075102-5.642449-8.045714-8.777143-11.807347l-44.094693-55.379592c-2.403265-3.030204-4.806531-5.746939-5.12-5.433469h-0.626939s-3.343673 0.522449-7.209796 1.149387l-67.395918 13.374694c-4.702041 1.044898-9.404082 1.880816-14.210613 2.716735l-1.149387 0.208979c-3.970612 0.626939-10.24 0.313469-14.210613-0.835918l-56.424489-18.181224c-3.970612-1.149388-10.34449-3.030204-13.897143-3.866123 0 0-11.493878-2.821224-20.89796-2.507755-9.404082 0-20.793469 2.507755-20.793469 2.507755-3.970612 0.835918-10.34449 2.716735-13.897143 3.866123l-56.528979 18.181224c-3.866122 1.253878-10.24 1.462857-14.210613 0.940408l-1.149387-0.313469c-3.970612-0.626939-10.24-2.194286-14.210613-2.716735l-68.022857-12.747755c-3.866122-0.940408-7.209796-1.253878-7.209796-1.253877h-0.522449c-0.313469 0-2.821224 2.507755-5.224489 5.537959l-44.094694 55.379592c-2.403265 3.030204-6.269388 8.463673-8.777143 11.702857l-34.063674 50.573061c-2.612245 4.179592-5.01551 8.359184-7.314285 12.747755l-3.030204 8.777143c-0.522449 3.970612-1.149388 10.553469-0.835919 14.524082 0 0 0 1.149388 1.149388 5.433469 2.194286 7.314286 7.314286 13.897143 7.314286 13.897143 2.403265 3.030204 6.896327 8.150204 9.613061 10.971428l99.996735 106.475102c2.821224 3.343673 3.552653 7.941224 2.089795 12.120817l-20.793469 49.319183c-1.567347 4.388571-1.671837 9.090612-0.313469 13.583674l5.746938 15.46449a77.082122 77.082122 0 0 0 23.823674 33.227755l20.27102 16.404898c3.448163 2.612245 8.045714 3.134694 12.120817 1.462857l63.947755-30.511021c4.388571-2.298776 8.359184-5.01551 12.120816-8.150204l45.871021-41.482449c6.582857-6.164898 7.000816-16.404898 0.940408-22.987755l-96.339592-65.097143a8.49502 8.49502 0 0 1-2.716735-10.553469l42.318368-79.934694c1.776327-4.075102 1.985306-8.777143 0.522448-13.061224l-5.12-11.807347c-2.089796-4.075102-5.433469-7.314286-9.613061-9.299592l-124.133877-46.602449c-3.657143-1.567347-3.657143-3.030204 0.208979-3.343674l80.039184-7.523265c3.970612-0.313469 10.34449 0.20898 14.210612 1.149388l71.366531 19.957551c3.866122 1.253878 6.269388 5.12 5.642449 9.090612l-24.764082 135.836735c-0.522449 3.970612-0.522449 9.404082 0.31347 12.434286 0.940408 3.030204 4.806531 5.746939 8.777142 6.687347l49.528164 10.553469c3.970612 0.940408 10.24 0.940408 14.210612 0l46.18449-10.553469c3.970612-0.940408 7.836735-3.970612 8.777143-6.687347 1.044898-4.075102 1.149388-8.254694 0.313469-12.329796l-24.450612-135.941225c-0.626939-3.970612 1.776327-8.150204 5.746939-9.090612l71.26204-19.957551c3.970612-1.149388 10.24-1.462857 14.210613-1.149388l80.039183 7.523265c3.866122 0.313469 4.179592 1.776327 0.31347 3.343674l-124.133878 47.229388c-4.284082 1.880816-7.732245 5.12-9.717551 9.299592l-5.12 11.807346c-1.462857 3.657143-1.462857 9.717551 0.626939 13.061225l42.631837 79.934694c1.671837 3.657143 0.522449 8.150204-2.821225 10.553469l-96.339592 65.306123c-2.925714 3.134694-4.597551 7.418776-4.388571 11.702857 0.10449 4.388571 2.089796 8.463673 5.328979 11.389388l45.871021 41.377959c3.030204 2.716735 8.463673 6.373878 12.120816 7.941224l64.365714 30.511021c3.552653 1.776327 8.986122 0.940408 12.016327-1.462858l20.27102-16.718367a73.926531 73.926531 0 0 0 23.510204-33.227755l5.746939-15.46449c1.462857-4.388571 1.358367-9.195102-0.208979-13.583673l-20.89796-49.319184c-1.462857-4.179592-0.626939-8.777143 2.089796-12.120816l99.996735-106.579592c2.716735-3.030204 6.896327-7.836735 9.717551-10.866939-0.626939-0.940408 4.806531-7.523265 6.582857-14.837551 1.149388-3.866122 1.149388-5.433469 1.149388-5.433469z" fill="#FFFFFF" p-id="8159"></path></svg>