<svg xmlns="http://www.w3.org/2000/svg" viewBox="0 0 48 48" fill="none">
  <defs>
    <linearGradient id="edgeGrad1" x1="8" y1="4" x2="40" y2="44" gradientUnits="userSpaceOnUse">
      <stop stop-color="#3B82F6"/>
      <stop offset="1" stop-color="#06B6D4"/>
    </linearGradient>
    <linearGradient id="edgeGrad2" x1="12" y1="8" x2="36" y2="40" gradientUnits="userSpaceOnUse">
      <stop stop-color="#10B981"/>
      <stop offset="1" stop-color="#06B6D4"/>
    </linearGradient>
  </defs>
  <path d="M38.5 28.5c0-1.5-.3-3-.8-4.3-.6-1.5-1.5-2.8-2.6-3.9 1.2 1.5 1.9 3.4 1.9 5.4 0 4.5-3.7 8.2-8.2 8.2H20c-3.3 0-6-2.7-6-6 0-1.7.7-3.2 1.8-4.3-3.5 1.5-6 5-6 9.1 0 5.5 4.5 10 10 10h9c7.2 0 13-5.3 13-12 0-.7-.1-1.5-.3-2.2z" fill="url(#edgeGrad2)"/>
  <path d="M24 6C14.1 6 6 14.1 6 24c0 2.2.4 4.3 1.1 6.2C8.8 24.5 14 20 20 20h8.8c2.3 0 4.4.9 6 2.4 1.1-2.5 1.7-5.3 1.7-8.2C36.5 9.5 31 6 24 6z" fill="url(#edgeGrad1)"/>
  <path d="M28.8 22.4H20c-3.3 0-6 2.7-6 6s2.7 6 6 6h8.8c4.5 0 8.2-3.7 8.2-8.2 0-2-.7-3.9-1.9-5.4-1.6 1.5-3.7 2.4-6 2.4-.1.2-.2.2-.3.2z" fill="#fff" fill-opacity=".9"/>
</svg>