<?xml version="1.0" standalone="no"?><!DOCTYPE svg PUBLIC "-//W3C//DTD SVG 1.1//EN" "http://www.w3.org/Graphics/SVG/1.1/DTD/svg11.dtd"><svg t="1775993596340" class="icon" viewBox="0 0 1024 1024" version="1.1" xmlns="http://www.w3.org/2000/svg" p-id="21472" xmlns:xlink="http://www.w3.org/1999/xlink" width="200" height="200"><path d="M601.173333 910.122667V452.778667a145.365333 145.365333 0 0 1 145.28 145.237333v312.064l-145.322666 0.042667zM85.333333 899.413333V162.517333h147.413334v736.853334H85.333333z m148.224-301.354666v-145.237334h367.658667v42.752a102.613333 102.613333 0 0 1-102.698667 102.485334h-264.96z m181.632-145.237334L541.312 157.866667h162.389333l-97.28 227.413333a111.104 111.104 0 0 1-102.186666 67.498667H415.189333z" fill="#000000" p-id="21473"></path><path d="M938.666667 213.504a85.461333 85.461333 0 0 1-85.504 85.504c-12.458667 0-79.061333 8.533333-79.061334 8.533333s12.842667-14.933333 23.466667-29.013333A85.504 85.504 0 1 1 938.666667 213.546667L938.666667 213.504z" fill="#007AFF" p-id="21474"></path></svg>