<?xml version="1.0" standalone="no"?><!DOCTYPE svg PUBLIC "-//W3C//DTD SVG 1.1//EN" "http://www.w3.org/Graphics/SVG/1.1/DTD/svg11.dtd"><svg t="1775993357054" class="icon" viewBox="0 0 1024 1024" version="1.1" xmlns="http://www.w3.org/2000/svg" p-id="14881" xmlns:xlink="http://www.w3.org/1999/xlink" width="200" height="200"><path d="M894.72 130.64c-72.4-72-183.28-72-382.72-72s-310.32 0-382.72 72S56.88 313.28 56.88 512s0 309.2 72.4 381.36 183.28 72 382.72 72 310.32 0 382.72-72 72.4-182.64 72.4-381.36 0-309.2-72.4-381.36zM752 752.72A340.32 340.32 0 1 1 752 272a341.44 341.44 0 0 1 0 480.72z" fill="#d81e06" p-id="14882"></path><path d="M672 343.12a56.56 56.56 0 0 0-39.04 82.24 94.72 94.72 0 0 1 9.6 42.24c0 1.92-0.48 5.6-0.88 9.28a90.72 90.72 0 0 1-95.36 80.64A89.04 89.04 0 0 1 472 511.52c-11.6-19.36-22.72-39.12-34.08-58.72-16-27.2-31.28-54.48-47.12-81.52a54.32 54.32 0 0 0-52.08-29.2 56.48 56.48 0 0 0-46.08 85.6q32 56 64.4 112c35.36 61.2 70.48 122.56 106.08 184a53.76 53.76 0 0 0 53.36 28.24 56 56 0 0 0 46.4-30.56q83.92-146.88 168.4-292.96a58.88 58.88 0 0 0 8-38.16A56.64 56.64 0 0 0 672 343.12z" fill="#d81e06" p-id="14883"></path></svg>